<mxfile host="65bd71144e">
    <diagram id="cKbEvmtSnNl46eyBFKNK" name="Page-1">
        <mxGraphModel dx="695" dy="1001" grid="1" gridSize="10" guides="1" tooltips="1" connect="1" arrows="1" fold="1" page="1" pageScale="1" pageWidth="827" pageHeight="1169" math="0" shadow="0">
            <root>
                <mxCell id="0"/>
                <mxCell id="1" parent="0"/>
                <mxCell id="2" value="arduino" style="whiteSpace=wrap;html=1;aspect=fixed;" parent="1" vertex="1">
                    <mxGeometry x="185" y="80" width="80" height="80" as="geometry"/>
                </mxCell>
                <mxCell id="3" value="colour-pd" style="whiteSpace=wrap;html=1;aspect=fixed;" parent="1" vertex="1">
                    <mxGeometry x="285" y="80" width="80" height="80" as="geometry"/>
                </mxCell>
                <mxCell id="5" value="d3-bars" style="whiteSpace=wrap;html=1;aspect=fixed;" parent="1" vertex="1">
                    <mxGeometry x="520" y="80" width="80" height="80" as="geometry"/>
                </mxCell>
                <mxCell id="6" value="docs" style="whiteSpace=wrap;html=1;aspect=fixed;" parent="1" vertex="1">
                    <mxGeometry x="80" y="640" width="80" height="80" as="geometry"/>
                </mxCell>
                <mxCell id="7" value="keyboard" style="whiteSpace=wrap;html=1;aspect=fixed;" parent="1" vertex="1">
                    <mxGeometry x="400" y="280" width="80" height="80" as="geometry"/>
                </mxCell>
                <mxCell id="8" value="DMX interaction" style="text;html=1;align=center;verticalAlign=middle;resizable=0;points=[];autosize=1;strokeColor=none;fillColor=none;" vertex="1" parent="1">
                    <mxGeometry x="170" y="170" width="110" height="30" as="geometry"/>
                </mxCell>
                <mxCell id="9" value="PD interaction" style="text;html=1;align=center;verticalAlign=middle;resizable=0;points=[];autosize=1;strokeColor=none;fillColor=none;" vertex="1" parent="1">
                    <mxGeometry x="275" y="170" width="100" height="30" as="geometry"/>
                </mxCell>
                <mxCell id="10" value="event representation" style="text;html=1;align=center;verticalAlign=middle;resizable=0;points=[];autosize=1;strokeColor=none;fillColor=none;" vertex="1" parent="1">
                    <mxGeometry x="495" y="170" width="130" height="30" as="geometry"/>
                </mxCell>
                <mxCell id="11" value="JSDoc" style="text;html=1;align=center;verticalAlign=middle;resizable=0;points=[];autosize=1;strokeColor=none;fillColor=none;" vertex="1" parent="1">
                    <mxGeometry x="90" y="720" width="60" height="30" as="geometry"/>
                </mxCell>
                <mxCell id="12" value="colour keyboard HTML/JS&lt;br&gt;(original project)" style="text;html=1;align=center;verticalAlign=middle;resizable=0;points=[];autosize=1;strokeColor=none;fillColor=none;" vertex="1" parent="1">
                    <mxGeometry x="360" y="365" width="160" height="40" as="geometry"/>
                </mxCell>
                <mxCell id="13" value="src" style="whiteSpace=wrap;html=1;aspect=fixed;" vertex="1" parent="1">
                    <mxGeometry x="400" y="460" width="80" height="80" as="geometry"/>
                </mxCell>
                <mxCell id="14" value="test" style="whiteSpace=wrap;html=1;aspect=fixed;" vertex="1" parent="1">
                    <mxGeometry x="130" y="470" width="80" height="80" as="geometry"/>
                </mxCell>
                <mxCell id="15" value="main interaction demo" style="text;html=1;align=center;verticalAlign=middle;resizable=0;points=[];autosize=1;strokeColor=none;fillColor=none;" vertex="1" parent="1">
                    <mxGeometry x="100" y="550" width="140" height="30" as="geometry"/>
                </mxCell>
                <mxCell id="16" value="JS synth colours" style="text;html=1;align=center;verticalAlign=middle;resizable=0;points=[];autosize=1;strokeColor=none;fillColor=none;" vertex="1" parent="1">
                    <mxGeometry x="385" y="550" width="110" height="30" as="geometry"/>
                </mxCell>
                <mxCell id="18" style="edgeStyle=none;html=1;exitX=0.5;exitY=1;exitDx=0;exitDy=0;" edge="1" parent="1" source="17" target="14">
                    <mxGeometry relative="1" as="geometry"/>
                </mxCell>
                <mxCell id="17" value="test_src" style="whiteSpace=wrap;html=1;aspect=fixed;" vertex="1" parent="1">
                    <mxGeometry x="130" y="330" width="80" height="80" as="geometry"/>
                </mxCell>
            </root>
        </mxGraphModel>
    </diagram>
</mxfile>